<svg width="20" height="20" viewBox="0 0 20 20" fill="none" xmlns="http://www.w3.org/2000/svg">
<path d="M9.12508 10.5834L7.91675 9.39586C7.76397 9.24309 7.57314 9.1667 7.34425 9.1667C7.11536 9.1667 6.9173 9.25003 6.75008 9.4167C6.5973 9.56948 6.52091 9.76392 6.52091 10C6.52091 10.2361 6.5973 10.4306 6.75008 10.5834L8.54175 12.375C8.70841 12.5417 8.90286 12.625 9.12508 12.625C9.3473 12.625 9.54175 12.5417 9.70841 12.375L13.2501 8.83337C13.4167 8.6667 13.4965 8.47225 13.4892 8.25003C13.482 8.02781 13.4023 7.83336 13.2501 7.6667C13.0834 7.50003 12.8856 7.41336 12.6567 7.4067C12.4279 7.40003 12.2298 7.47975 12.0626 7.64587L9.12508 10.5834ZM6.79175 18.125L5.58341 16.0834L3.29175 15.5834C3.08341 15.5417 2.91675 15.4342 2.79175 15.2609C2.66675 15.0875 2.61814 14.8964 2.64591 14.6875L2.87508 12.3334L1.31258 10.5417C1.17369 10.3889 1.10425 10.2084 1.10425 10C1.10425 9.7917 1.17369 9.61114 1.31258 9.45837L2.87508 7.6667L2.64591 5.31253C2.61814 5.1042 2.66675 4.91309 2.79175 4.7392C2.91675 4.56531 3.08341 4.45781 3.29175 4.4167L5.58341 3.9167L6.79175 1.87503C6.90286 1.69448 7.05564 1.57281 7.25008 1.51003C7.44453 1.44725 7.63897 1.45781 7.83341 1.5417L10.0001 2.45837L12.1667 1.5417C12.3612 1.45837 12.5556 1.44781 12.7501 1.51003C12.9445 1.57225 13.0973 1.69392 13.2084 1.87503L14.4167 3.9167L16.7084 4.4167C16.9167 4.45837 17.0834 4.56614 17.2084 4.74003C17.3334 4.91392 17.382 5.10475 17.3542 5.31253L17.1251 7.6667L18.6876 9.45837C18.8265 9.61114 18.8959 9.7917 18.8959 10C18.8959 10.2084 18.8265 10.3889 18.6876 10.5417L17.1251 12.3334L17.3542 14.6875C17.382 14.8959 17.3334 15.087 17.2084 15.2609C17.0834 15.4348 16.9167 15.5423 16.7084 15.5834L14.4167 16.0834L13.2084 18.125C13.0973 18.3056 12.9445 18.4273 12.7501 18.49C12.5556 18.5528 12.3612 18.5423 12.1667 18.4584L10.0001 17.5417L7.83341 18.4584C7.63897 18.5417 7.44453 18.5523 7.25008 18.49C7.05564 18.4278 6.90286 18.3061 6.79175 18.125Z" fill="#1EA1F3"/>
</svg>