<svg width="20" height="20" viewBox="0 0 20 20" fill="none" xmlns="http://www.w3.org/2000/svg">
<path d="M8.08202 10.579L3.68952 9.82065C3.33807 9.72257 3.02667 9.51577 2.79994 9.22988C2.57321 8.94398 2.44278 8.59367 2.42733 8.22911C2.41188 7.86455 2.51221 7.50445 2.71394 7.20041C2.91567 6.89636 3.20846 6.66395 3.55036 6.53649L15.2545 2.39649C15.5639 2.28376 15.899 2.26171 16.2205 2.33291C16.5419 2.40412 16.8364 2.56563 17.0692 2.79845C17.302 3.03128 17.4636 3.32573 17.5348 3.6472C17.606 3.96867 17.5839 4.30379 17.4712 4.61315L13.3312 16.5448C13.2086 16.8989 12.9743 17.2036 12.6636 17.413C12.3528 17.6225 11.9825 17.7253 11.6082 17.706C11.234 17.6867 10.8762 17.5464 10.5886 17.3062C10.301 17.066 10.0993 16.7388 10.0137 16.374L9.25535 11.7523C9.1735 11.4742 9.0232 11.2211 8.81822 11.0161C8.61323 10.8111 8.36011 10.6608 8.08202 10.579Z" stroke="#B76F79" stroke-width="1.5" stroke-linecap="round" stroke-linejoin="round"/>
</svg>