<svg width="120" height="120" viewBox="0 0 555 648" fill="none" xmlns="http://www.w3.org/2000/svg">
<g opacity="0.42">
<path d="M242.661 557.402C376.585 557.402 485.322 577.663 485.322 602.618C485.322 627.572 376.585 647.833 242.661 647.833C108.736 647.833 0 627.572 0 602.618C0 577.663 108.736 557.402 242.661 557.402Z" fill="#D1D5D5"/>
</g>
<path d="M552.764 573.105L477.052 586.062L413.145 178.301L488.857 165.344L552.764 573.105Z" fill="#A68380"/>
<path d="M552.764 573.105L477.052 586.062L413.145 178.301L488.857 165.344L552.764 573.105Z" fill="#A68380" stroke="#1A1A1A" stroke-width="2.90996"/>
<path d="M428.856 306.102V583.618H57.0557V306.102H428.856Z" fill="#A68380"/>
<path d="M428.856 306.102V583.618H57.0557V306.102H428.856Z" fill="#A68380" stroke="#1A1A1A" stroke-width="3.77054"/>
<path d="M428.202 308.621V580.622H396.388V308.621H428.202Z" fill="#A68380"/>
<path d="M552.186 539.367L535.566 460.878L409.107 481.356L434.653 521.5L431.589 562.384L552.186 539.367Z" fill="#F4F0F0"/>
<path d="M552.186 539.367L535.566 460.878L409.107 481.356L434.653 521.5L431.589 562.384L552.186 539.367Z" stroke="#1A1A1A" stroke-width="1.4899"/>
<path d="M298.661 411.621V413.621C298.661 424.659 289.699 433.621 278.661 433.621H158.661C147.623 433.621 138.661 424.659 138.661 413.621V411.621C138.661 400.583 147.623 391.621 158.661 391.621H278.661C289.699 391.621 298.661 400.583 298.661 411.621Z" fill="#A68380"/>
<path d="M298.661 411.621V413.621C298.661 424.659 289.699 433.621 278.661 433.621H158.661C147.623 433.621 138.661 424.659 138.661 413.621V411.621C138.661 400.583 147.623 391.621 158.661 391.621H278.661C289.699 391.621 298.661 400.583 298.661 411.621Z" fill="#A68380" stroke="#1A1A1A" stroke-width="4"/>
<path d="M279.661 408.621C279.661 415.796 273.836 421.621 266.661 421.621H159.661C152.486 421.621 146.661 415.796 146.661 408.621C146.661 401.446 152.486 395.621 159.661 395.621H266.661C273.836 395.621 279.661 401.446 279.661 408.621Z" fill="white"/>
<path d="M279.661 408.621C279.661 415.796 273.836 421.621 266.661 421.621H159.661C152.486 421.621 146.661 415.796 146.661 408.621C146.661 401.446 152.486 395.621 159.661 395.621H266.661C273.836 395.621 279.661 401.446 279.661 408.621Z" stroke="white" stroke-width="4"/>
<path d="M301.161 313.621V323.621H266.161V313.621H301.161Z" fill="#A68380"/>
<path d="M301.161 313.621V323.621H266.161V313.621H301.161Z" fill="#A68380" stroke="#A68380" stroke-width="5"/>
<path d="M146.661 316.621V326.621H111.661V316.621H146.661Z" fill="#A68380"/>
<path d="M146.661 316.621V326.621H111.661V316.621H146.661Z" fill="#A68380" stroke="#A68380" stroke-width="5"/>
<path d="M320.329 4.74075L312.009 167.528L249.091 164.312L257.411 1.52487L320.329 4.74075Z" fill="#F4F0F0" stroke="#A68380"/>
<path d="M320.854 4.26693L312.483 168.053L248.566 164.786L256.938 1L320.854 4.26693Z" stroke="#A68380"/>
<path d="M308.429 198.384L306.234 241.328L247.311 238.316L249.506 195.373L308.429 198.384Z" fill="#F4F0F0" stroke="#A68380"/>
<path d="M308.954 197.91L306.708 241.853L246.786 238.79L249.032 194.848L308.954 197.91Z" stroke="#A68380"/>
</svg>