<svg width="60" height="60" viewBox="0 0 60 60" fill="none" xmlns="http://www.w3.org/2000/svg">
<path d="M47.5 17.5V10C47.5 9.33696 47.2366 8.70107 46.7678 8.23223C46.2989 7.76339 45.663 7.5 45 7.5H12.5C11.1739 7.5 9.90215 8.02678 8.96447 8.96447C8.02678 9.90215 7.5 11.1739 7.5 12.5C7.5 13.8261 8.02678 15.0979 8.96447 16.0355C9.90215 16.9732 11.1739 17.5 12.5 17.5H50C50.663 17.5 51.2989 17.7634 51.7678 18.2322C52.2366 18.7011 52.5 19.337 52.5 20V30M52.5 30H45C43.6739 30 42.4021 30.5268 41.4645 31.4645C40.5268 32.4021 40 33.6739 40 35C40 36.3261 40.5268 37.5979 41.4645 38.5355C42.4021 39.4732 43.6739 40 45 40H52.5C53.163 40 53.7989 39.7366 54.2678 39.2678C54.7366 38.7989 55 38.163 55 37.5V32.5C55 31.837 54.7366 31.2011 54.2678 30.7322C53.7989 30.2634 53.163 30 52.5 30Z" stroke="#666666" stroke-width="3" stroke-linecap="round" stroke-linejoin="round"/>
<path d="M7.5 12.5V47.5C7.5 48.8261 8.02678 50.0979 8.96447 51.0355C9.90215 51.9732 11.1739 52.5 12.5 52.5H50C50.663 52.5 51.2989 52.2366 51.7678 51.7678C52.2366 51.2989 52.5 50.663 52.5 50V40" stroke="#666666" stroke-width="3" stroke-linecap="round" stroke-linejoin="round"/>
</svg>
