<svg width="100" height="20" viewBox="0 0 100 20" fill="none" xmlns="http://www.w3.org/2000/svg">
<g clip-path="url(#clip0_7458_9828)">
<path d="M10.0019 14.3916L13.4602 16.4833C14.0936 16.8666 14.8686 16.3 14.7019 15.5833L13.7852 11.65L16.8436 8.99997C17.4019 8.51663 17.1019 7.59997 16.3686 7.54163L12.3436 7.19997L10.7686 3.4833C10.4852 2.8083 9.51856 2.8083 9.23523 3.4833L7.66022 7.19163L3.63523 7.5333C2.90189 7.59163 2.60189 8.5083 3.16022 8.99163L6.21856 11.6416L5.30189 15.575C5.13523 16.2916 5.91023 16.8583 6.54356 16.475L10.0019 14.3916Z" fill="#EEB71C"/>
</g>
<g clip-path="url(#clip1_7458_9828)">
<path d="M30.0019 14.3916L33.4602 16.4833C34.0936 16.8666 34.8686 16.3 34.7019 15.5833L33.7852 11.65L36.8436 8.99997C37.4019 8.51663 37.1019 7.59997 36.3686 7.54163L32.3436 7.19997L30.7686 3.4833C30.4852 2.8083 29.5186 2.8083 29.2352 3.4833L27.6602 7.19163L23.6352 7.5333C22.9019 7.59163 22.6019 8.5083 23.1602 8.99163L26.2186 11.6416L25.3019 15.575C25.1352 16.2916 25.9102 16.8583 26.5436 16.475L30.0019 14.3916Z" fill="#EEB71C"/>
</g>
<g clip-path="url(#clip2_7458_9828)">
<path d="M50.0019 14.3916L53.4602 16.4833C54.0936 16.8666 54.8686 16.3 54.7019 15.5833L53.7852 11.65L56.8436 8.99997C57.4019 8.51663 57.1019 7.59997 56.3686 7.54163L52.3436 7.19997L50.7686 3.4833C50.4852 2.8083 49.5186 2.8083 49.2352 3.4833L47.6602 7.19163L43.6352 7.5333C42.9019 7.59163 42.6019 8.5083 43.1602 8.99163L46.2186 11.6416L45.3019 15.575C45.1352 16.2916 45.9102 16.8583 46.5436 16.475L50.0019 14.3916Z" fill="#EEB71C"/>
</g>
<g clip-path="url(#clip3_7458_9828)">
<path d="M70.0019 14.3916L73.4602 16.4833C74.0936 16.8666 74.8686 16.3 74.7019 15.5833L73.7852 11.65L76.8436 8.99997C77.4019 8.51663 77.1019 7.59997 76.3686 7.54163L72.3436 7.19997L70.7686 3.4833C70.4852 2.8083 69.5186 2.8083 69.2352 3.4833L67.6602 7.19163L63.6352 7.5333C62.9019 7.59163 62.6019 8.5083 63.1602 8.99163L66.2186 11.6416L65.3019 15.575C65.1352 16.2916 65.9102 16.8583 66.5436 16.475L70.0019 14.3916Z" fill="#EEB71C"/>
</g>
<g clip-path="url(#clip4_7458_9828)">
<path d="M90.0019 14.3916L93.4602 16.4833C94.0936 16.8666 94.8686 16.3 94.7019 15.5833L93.7852 11.65L96.8436 8.99997C97.4019 8.51663 97.1019 7.59997 96.3686 7.54163L92.3436 7.19997L90.7686 3.4833C90.4852 2.8083 89.5186 2.8083 89.2352 3.4833L87.6602 7.19163L83.6352 7.5333C82.9019 7.59163 82.6019 8.5083 83.1602 8.99163L86.2186 11.6416L85.3019 15.575C85.1352 16.2916 85.9102 16.8583 86.5436 16.475L90.0019 14.3916Z" fill="#EEB71C"/>
</g>
<defs>
<clipPath id="clip0_7458_9828">
<rect width="20" height="20" fill="white"/>
</clipPath>
<clipPath id="clip1_7458_9828">
<rect width="20" height="20" fill="white" transform="translate(20)"/>
</clipPath>
<clipPath id="clip2_7458_9828">
<rect width="20" height="20" fill="white" transform="translate(40)"/>
</clipPath>
<clipPath id="clip3_7458_9828">
<rect width="20" height="20" fill="white" transform="translate(60)"/>
</clipPath>
<clipPath id="clip4_7458_9828">
<rect width="20" height="20" fill="white" transform="translate(80)"/>
</clipPath>
</defs>
</svg>
