<svg width="60" height="60" viewBox="0 0 60 60" fill="none" xmlns="http://www.w3.org/2000/svg">
<path d="M27.5 37.5H32.5C33.8261 37.5 35.0979 36.9732 36.0355 36.0355C36.9732 35.0979 37.5 33.8261 37.5 32.5C37.5 31.1739 36.9732 29.9021 36.0355 28.9645C35.0979 28.0268 33.8261 27.5 32.5 27.5H25C23.5 27.5 22.25 28 21.5 29L7.5 42.5" stroke="#666666" stroke-width="3" stroke-linecap="round" stroke-linejoin="round"/>
<path d="M17.5 52.4997L21.5 48.9997C22.25 47.9997 23.5 47.4997 25 47.4997H35C37.75 47.4997 40.25 46.4997 42 44.4997L53.5 33.4997C54.4647 32.588 55.0278 31.3304 55.0653 30.0036C55.1028 28.6768 54.6117 27.3894 53.7 26.4247C52.7883 25.46 51.5307 24.8969 50.2039 24.8594C48.8771 24.8219 47.5897 25.313 46.625 26.2247L36.125 35.9747" stroke="#666666" stroke-width="3" stroke-linecap="round" stroke-linejoin="round"/>
<path d="M5 40L20 55" stroke="#666666" stroke-width="3" stroke-linecap="round" stroke-linejoin="round"/>
<path d="M40 29.75C44.0041 29.75 47.25 26.5041 47.25 22.5C47.25 18.4959 44.0041 15.25 40 15.25C35.9959 15.25 32.75 18.4959 32.75 22.5C32.75 26.5041 35.9959 29.75 40 29.75Z" stroke="#666666" stroke-width="3" stroke-linecap="round" stroke-linejoin="round"/>
<path d="M15 20C19.1421 20 22.5 16.6421 22.5 12.5C22.5 8.35786 19.1421 5 15 5C10.8579 5 7.5 8.35786 7.5 12.5C7.5 16.6421 10.8579 20 15 20Z" stroke="#666666" stroke-width="3" stroke-linecap="round" stroke-linejoin="round"/>
</svg>
