<svg width="22" height="23" viewBox="0 0 22 23" fill="none" xmlns="http://www.w3.org/2000/svg">
<path d="M14.0758 21.8633V12.9761C14.0758 12.6814 13.9588 12.3989 13.7504 12.1905C13.542 11.9822 13.2594 11.8652 12.9647 11.8652H8.52029C8.22561 11.8652 7.94299 11.9822 7.73462 12.1905C7.52624 12.3989 7.40918 12.6814 7.40918 12.9761V21.8633" stroke="#1A1A1A" stroke-width="1.5" stroke-linecap="round" stroke-linejoin="round"/>
<path d="M0.75 9.63664C0.749923 9.31345 0.820371 8.99412 0.956431 8.70095C1.09249 8.40777 1.29089 8.14781 1.53778 7.93918L9.31556 1.27488C9.71665 0.935952 10.2248 0.75 10.75 0.75C11.2752 0.75 11.7833 0.935952 12.1844 1.27488L19.9622 7.93918C20.2091 8.14781 20.4075 8.40777 20.5436 8.70095C20.6796 8.99412 20.7501 9.31345 20.75 9.63664V19.6348C20.75 20.224 20.5159 20.7892 20.0991 21.2058C19.6824 21.6225 19.1171 21.8566 18.5278 21.8566H2.97222C2.38285 21.8566 1.81762 21.6225 1.40087 21.2058C0.984126 20.7892 0.75 20.224 0.75 19.6348V9.63664Z" stroke="#1A1A1A" stroke-width="1.5" stroke-linecap="round" stroke-linejoin="round"/>
</svg>