<svg xmlns="http://www.w3.org/2000/svg" width="24" height="24" fill="none" viewBox="0 0 24 24"><path fill="#1a1a1a" fill-rule="evenodd" d="M19.27 8.405a2.599 2.599 0 0 0-3.676-3.675l-9.331 9.33-.117.177c-.171.434-.38.86-.9 1.869-1.304 2.532-1.512 3.051-.959 3.605.554.555 1.073.346 3.606-.96 1.008-.52 1.435-.727 1.87-.899l.176-.116zm-.735-2.94a1.56 1.56 0 0 1 0 2.205l-9.257 9.257c-.443.18-.892.402-1.861.901-.988.51-1.405.715-1.836.887a4 4 0 0 1-.453.156q.048-.185.156-.452c.173-.43.379-.848.887-1.836.5-.97.72-1.418.902-1.861l9.256-9.257a1.56 1.56 0 0 1 2.206 0" clip-rule="evenodd"/><path fill="#1a1a1a" d="M12.538 5.398a.52.52 0 0 1 .735-.735l5.881 5.881a.519.519 0 1 1-.735.736z"/></svg>