<svg width="25" height="24" viewBox="0 0 25 24" fill="none" xmlns="http://www.w3.org/2000/svg">
<mask id="mask0_5402_9029" style="mask-type:alpha" maskUnits="userSpaceOnUse" x="0" y="0" width="25" height="24">
<rect x="0.5" width="24" height="24" fill="#1a1a1a"/>
</mask>
<g mask="url(#mask0_5402_9029)">
<path d="M10.0192 15.6152C8.31157 15.6152 6.86541 15.023 5.68074 13.8385C4.49624 12.6538 3.90399 11.2077 3.90399 9.5C3.90399 7.79233 4.49624 6.34617 5.68074 5.1615C6.86541 3.977 8.31157 3.38475 10.0192 3.38475C11.7269 3.38475 13.1731 3.977 14.3577 5.1615C15.5422 6.34617 16.1345 7.79233 16.1345 9.5C16.1345 10.2142 16.0147 10.8963 15.775 11.5463C15.5352 12.1962 15.2152 12.7616 14.8152 13.2423L20.5692 18.9962C20.7077 19.1346 20.7786 19.3086 20.7817 19.5182C20.7849 19.7279 20.7141 19.9052 20.5692 20.05C20.4244 20.1948 20.2487 20.2673 20.0422 20.2673C19.8359 20.2673 19.6603 20.1948 19.5155 20.05L13.7615 14.296C13.2615 14.7088 12.6865 15.0319 12.0365 15.2653C11.3865 15.4986 10.7141 15.6152 10.0192 15.6152ZM10.0192 14.1155C11.3077 14.1155 12.3991 13.6683 13.2932 12.774C14.1876 11.8798 14.6347 10.7885 14.6347 9.5C14.6347 8.2115 14.1876 7.12017 13.2932 6.226C12.3991 5.33167 11.3077 4.8845 10.0192 4.8845C8.73074 4.8845 7.63941 5.33167 6.74524 6.226C5.85091 7.12017 5.40374 8.2115 5.40374 9.5C5.40374 10.7885 5.85091 11.8798 6.74524 12.774C7.63941 13.6683 8.73074 14.1155 10.0192 14.1155Z" fill="#666666"/>
</g>
</svg>

