<svg width="25" height="25" viewBox="0 0 25 25" fill="none" xmlns="http://www.w3.org/2000/svg">
<path d="M6.31347 22.5304H18.2768C20.106 22.5304 21.1633 21.4736 21.1633 19.3794V8.85976C21.1633 6.76598 20.0961 5.70868 17.9715 5.70868H16.3556C16.2949 3.57414 14.4449 1.75488 12.1477 1.75488C9.84054 1.75488 7.99049 3.57414 7.92934 5.70868H6.31391C4.19975 5.70868 3.12207 6.75557 3.12207 8.85976V19.3798C3.12207 21.4836 4.19975 22.5304 6.31391 22.5304M12.1477 3.30006C13.5805 3.30006 14.6682 4.37774 14.7194 5.70912H9.576C9.61677 4.37774 10.7044 3.30006 12.1477 3.30006ZM6.34383 20.8942C5.3273 20.8942 4.75832 20.3556 4.75832 19.2987V8.94085C4.75832 7.88399 5.3273 7.34493 6.34383 7.34493H17.9515C18.9473 7.34493 19.5266 7.88399 19.5266 8.94085V19.2983C19.5266 20.3556 18.9473 20.8942 18.246 20.8942H6.34383Z" fill="black"/>
</svg>