<svg width="28" height="28" viewBox="0 0 28 28" fill="none" xmlns="http://www.w3.org/2000/svg">
<path d="M12.8336 17.4997H15.1669C15.7857 17.4997 16.3792 17.2538 16.8168 16.8163C17.2544 16.3787 17.5002 15.7852 17.5002 15.1663C17.5002 14.5475 17.2544 13.954 16.8168 13.5164C16.3792 13.0788 15.7857 12.833 15.1669 12.833H11.6669C10.9669 12.833 10.3836 13.0663 10.0336 13.533L3.50024 19.833" stroke="#666666" stroke-width="1.5" stroke-linecap="round" stroke-linejoin="round"/>
<path d="M8.16577 24.5003L10.0324 22.867C10.3824 22.4003 10.9658 22.167 11.6658 22.167H16.3324C17.6158 22.167 18.7824 21.7003 19.5991 20.767L24.9658 15.6337C25.416 15.2082 25.6787 14.6213 25.6962 14.0021C25.7137 13.383 25.4846 12.7822 25.0591 12.332C24.6337 11.8818 24.0468 11.619 23.4276 11.6015C22.8084 11.584 22.2076 11.8132 21.7574 12.2387L16.8574 16.7887" stroke="#666666" stroke-width="1.5" stroke-linecap="round" stroke-linejoin="round"/>
<path d="M2.33472 18.667L9.33472 25.667" stroke="#666666" stroke-width="1.5" stroke-linecap="round" stroke-linejoin="round"/>
<path d="M18.6653 13.8829C20.5339 13.8829 22.0486 12.3681 22.0486 10.4995C22.0486 8.63098 20.5339 7.11621 18.6653 7.11621C16.7968 7.11621 15.282 8.63098 15.282 10.4995C15.282 12.3681 16.7968 13.8829 18.6653 13.8829Z" stroke="#666666" stroke-width="1.5" stroke-linecap="round" stroke-linejoin="round"/>
<path d="M7.00024 9.33301C8.93324 9.33301 10.5002 7.766 10.5002 5.83301C10.5002 3.90001 8.93324 2.33301 7.00024 2.33301C5.06725 2.33301 3.50024 3.90001 3.50024 5.83301C3.50024 7.766 5.06725 9.33301 7.00024 9.33301Z" stroke="#666666" stroke-width="1.5" stroke-linecap="round" stroke-linejoin="round"/>
</svg>