<svg viewBox="0 0 24 24" fill="none" xmlns="http://www.w3.org/2000/svg">
<mask id="mask0_5402_9044" style="mask-type:alpha" maskUnits="userSpaceOnUse" x="0" y="0" width="24" height="24">
<rect width="24" height="24" fill="#333333"/>
</mask>
<g mask="url(#mask0_5402_9044)">
<path d="M5.3058 21.501C4.80713 21.501 4.38113 21.3244 4.0278 20.9712C3.67463 20.6179 3.49805 20.1919 3.49805 19.6932V8.30873C3.49805 7.81006 3.67463 7.38406 4.0278 7.03073C4.38113 6.67756 4.80713 6.50098 5.3058 6.50098H7.49805C7.49805 5.25231 7.93588 4.19014 8.81155 3.31448C9.68721 2.43881 10.7494 2.00098 11.998 2.00098C13.2467 2.00098 14.3089 2.43881 15.1845 3.31448C16.0602 4.19014 16.498 5.25231 16.498 6.50098H18.6903C19.189 6.50098 19.615 6.67756 19.9683 7.03073C20.3215 7.38406 20.498 7.81006 20.498 8.30873V19.6932C20.498 20.1919 20.3215 20.6179 19.9683 20.9712C19.615 21.3244 19.189 21.501 18.6903 21.501H5.3058ZM5.3058 20.001H18.6903C18.7673 20.001 18.8378 19.9689 18.9018 19.9047C18.966 19.8407 18.998 19.7702 18.998 19.6932V8.30873C18.998 8.23173 18.966 8.16123 18.9018 8.09723C18.8378 8.03306 18.7673 8.00098 18.6903 8.00098H5.3058C5.2288 8.00098 5.1583 8.03306 5.0943 8.09723C5.03013 8.16123 4.99805 8.23173 4.99805 8.30873V19.6932C4.99805 19.7702 5.03013 19.8407 5.0943 19.9047C5.1583 19.9689 5.2288 20.001 5.3058 20.001ZM11.998 13.501C13.2467 13.501 14.3089 13.0631 15.1845 12.1875C16.0602 11.3118 16.498 10.2496 16.498 9.00098H14.998C14.998 9.83431 14.7064 10.5426 14.123 11.126C13.5397 11.7093 12.8314 12.001 11.998 12.001C11.1647 12.001 10.4564 11.7093 9.87305 11.126C9.28971 10.5426 8.99805 9.83431 8.99805 9.00098H7.49805C7.49805 10.2496 7.93588 11.3118 8.81155 12.1875C9.68721 13.0631 10.7494 13.501 11.998 13.501ZM8.99805 6.50098H14.998C14.998 5.66764 14.7064 4.95931 14.123 4.37598C13.5397 3.79264 12.8314 3.50098 11.998 3.50098C11.1647 3.50098 10.4564 3.79264 9.87305 4.37598C9.28971 4.95931 8.99805 5.66764 8.99805 6.50098Z" fill="#333333"/>
</g>
</svg>
