<svg width="18" height="18" viewBox="0 0 18 18" fill="none" xmlns="http://www.w3.org/2000/svg">
<mask id="mask0_14118_10895" style="mask-type:alpha" maskUnits="userSpaceOnUse" x="0" y="0" width="18" height="18">
<rect width="18" height="18" fill="#D9D9D9"/>
</mask>
<g mask="url(#mask0_14118_10895)">
<path d="M11.1176 9L5.46808 3.35044C5.31908 3.20144 5.24652 3.02406 5.25039 2.81831C5.25427 2.61256 5.3307 2.43512 5.4797 2.286C5.6287 2.137 5.80608 2.0625 6.01183 2.0625C6.21758 2.0625 6.39502 2.137 6.54414 2.286L12.286 8.03944C12.4215 8.17506 12.5219 8.327 12.5873 8.49525C12.6528 8.6635 12.6855 8.83175 12.6855 9C12.6855 9.16825 12.6528 9.3365 12.5873 9.50475C12.5219 9.673 12.4215 9.82494 12.286 9.96056L6.53252 15.714C6.38352 15.863 6.20808 15.9356 6.0062 15.9317C5.8042 15.9278 5.6287 15.8514 5.4797 15.7024C5.3307 15.5534 5.2562 15.376 5.2562 15.1703C5.2562 14.9645 5.3307 14.7871 5.4797 14.6379L11.1176 9Z" fill="#666666"/>
</g>
</svg>