<svg width="28" height="28" viewBox="0 0 28 28" fill="none" xmlns="http://www.w3.org/2000/svg">
<path d="M16.3348 2.33301V6.99967C16.3348 7.61851 16.5806 8.21201 17.0182 8.64959C17.4558 9.08718 18.0493 9.33301 18.6681 9.33301H23.3348" stroke="#666666" stroke-width="1.5" stroke-linecap="round" stroke-linejoin="round"/>
<path d="M17.5003 21C17.5003 20.0717 17.1316 19.1815 16.4752 18.5251C15.8188 17.8687 14.9286 17.5 14.0003 17.5C13.072 17.5 12.1818 17.8687 11.5254 18.5251C10.8691 19.1815 10.5003 20.0717 10.5003 21" stroke="#666666" stroke-width="1.5" stroke-linecap="round" stroke-linejoin="round"/>
<path d="M17.4992 2.33301H6.99917C6.38033 2.33301 5.78683 2.57884 5.34925 3.01643C4.91167 3.45401 4.66583 4.0475 4.66583 4.66634V23.333C4.66583 23.9518 4.91167 24.5453 5.34925 24.9829C5.78683 25.4205 6.38033 25.6663 6.99917 25.6663H20.9992C21.618 25.6663 22.2115 25.4205 22.6491 24.9829C23.0867 24.5453 23.3325 23.9518 23.3325 23.333V8.16634L17.4992 2.33301Z" stroke="#666666" stroke-width="1.5" stroke-linecap="round" stroke-linejoin="round"/>
<path d="M13.9992 17.4997C15.2878 17.4997 16.3325 16.455 16.3325 15.1663C16.3325 13.8777 15.2878 12.833 13.9992 12.833C12.7105 12.833 11.6658 13.8777 11.6658 15.1663C11.6658 16.455 12.7105 17.4997 13.9992 17.4997Z" stroke="#666666" stroke-width="1.5" stroke-linecap="round" stroke-linejoin="round"/>
</svg>
