<svg width="28" height="28" viewBox="0 0 28 28" fill="none" xmlns="http://www.w3.org/2000/svg">
<mask id="mask0_6034_1438" style="mask-type:alpha" maskUnits="userSpaceOnUse" x="0" y="0" width="28" height="28">
<rect width="28" height="28" fill="#D9D9D9"/>
</mask>
<g mask="url(#mask0_6034_1438)">
<path d="M6.55199 24.5C6.0299 24.5 5.58521 24.3164 5.2179 23.9493C4.85079 23.582 4.66724 23.1373 4.66724 22.6152V10.0514C4.66724 9.52933 4.85079 9.08464 5.2179 8.71733C5.58521 8.35022 6.0299 8.16667 6.55199 8.16667H9.3339C9.3339 6.86681 9.78676 5.76411 10.6925 4.85858C11.598 3.95286 12.7007 3.5 14.0006 3.5C15.3004 3.5 16.4031 3.95286 17.3087 4.85858C18.2144 5.76411 18.6672 6.86681 18.6672 8.16667H21.4492C21.9712 8.16667 22.4159 8.35022 22.7832 8.71733C23.1503 9.08464 23.3339 9.52933 23.3339 10.0514V22.6152C23.3339 23.1373 23.1503 23.582 22.7832 23.9493C22.4159 24.3164 21.9712 24.5 21.4492 24.5H6.55199ZM6.55199 23.3333H21.4492C21.6288 23.3333 21.7934 23.2586 21.9429 23.109C22.0925 22.9595 22.1672 22.7949 22.1672 22.6152V10.0514C22.1672 9.87175 22.0925 9.70715 21.9429 9.55763C21.7934 9.4081 21.6288 9.33333 21.4492 9.33333H6.55199C6.37232 9.33333 6.20772 9.4081 6.05819 9.55763C5.90867 9.70715 5.8339 9.87175 5.8339 10.0514V22.6152C5.8339 22.7949 5.90867 22.9595 6.05819 23.109C6.20772 23.2586 6.37232 23.3333 6.55199 23.3333ZM14.0006 15.1667C15.3004 15.1667 16.4031 14.7138 17.3087 13.8081C18.2144 12.9026 18.6672 11.7999 18.6672 10.5H17.5006C17.5006 11.4722 17.1603 12.2986 16.4797 12.9792C15.7992 13.6597 14.9728 14 14.0006 14C13.0283 14 12.202 13.6597 11.5214 12.9792C10.8408 12.2986 10.5006 11.4722 10.5006 10.5H9.3339C9.3339 11.7999 9.78676 12.9026 10.6925 13.8081C11.598 14.7138 12.7007 15.1667 14.0006 15.1667ZM10.5006 8.16667H17.5006C17.5006 7.19444 17.1603 6.36806 16.4797 5.6875C15.7992 5.00694 14.9728 4.66667 14.0006 4.66667C13.0283 4.66667 12.202 5.00694 11.5214 5.6875C10.8408 6.36806 10.5006 7.19444 10.5006 8.16667Z" fill="#666666"/>
</g>
</svg>