<svg width="28" height="28" viewBox="0 0 28 28" fill="none" xmlns="http://www.w3.org/2000/svg">
<path d="M17.5 24.5V18.6667C17.5 18.3572 17.3771 18.0605 17.1583 17.8417C16.9395 17.6229 16.6428 17.5 16.3333 17.5H11.6667C11.3572 17.5 11.0605 17.6229 10.8417 17.8417C10.6229 18.0605 10.5 18.3572 10.5 18.6667V24.5" stroke="#1A1A1A" stroke-width="1.75" stroke-linecap="round" stroke-linejoin="round"/>
<path d="M20.7361 12.0285C20.4929 11.7957 20.1692 11.6657 19.8325 11.6657C19.4958 11.6657 19.1722 11.7957 18.9289 12.0285C18.3865 12.5459 17.6656 12.8346 16.9159 12.8346C16.1662 12.8346 15.4453 12.5459 14.9028 12.0285C14.6596 11.796 14.3362 11.6663 13.9998 11.6663C13.6634 11.6663 13.3399 11.796 13.0968 12.0285C12.5542 12.5463 11.8331 12.8352 11.0831 12.8352C10.3331 12.8352 9.612 12.5463 9.06945 12.0285C8.82624 11.7957 8.50255 11.6657 8.16587 11.6657C7.82918 11.6657 7.50549 11.7957 7.26228 12.0285C6.73827 12.5285 6.04693 12.8157 5.32285 12.8341C4.59876 12.8525 3.89372 12.6009 3.34497 12.1281C2.79622 11.6553 2.44301 10.9953 2.3541 10.2764C2.26518 9.5576 2.44693 8.83139 2.86395 8.23916L6.23445 3.35783C6.44831 3.04226 6.73622 2.78389 7.07302 2.60532C7.40982 2.42676 7.78524 2.33343 8.16645 2.3335H19.8331C20.2132 2.33335 20.5876 2.42606 20.9237 2.60357C21.2598 2.78107 21.5474 3.03799 21.7616 3.352L25.1391 8.24266C25.5562 8.83536 25.7377 9.56212 25.6483 10.2813C25.5588 11.0006 25.2048 11.6607 24.6551 12.1331C24.1055 12.6056 23.3997 12.8565 22.6752 12.8369C21.9507 12.8173 21.2594 12.5287 20.7361 12.0273" stroke="#1A1A1A" stroke-width="1.75" stroke-linecap="round" stroke-linejoin="round"/>
<path d="M4.66797 12.7749V22.1666C4.66797 22.7854 4.9138 23.3789 5.35139 23.8165C5.78897 24.2541 6.38246 24.4999 7.0013 24.4999H21.0013C21.6201 24.4999 22.2136 24.2541 22.6512 23.8165C23.0888 23.3789 23.3346 22.7854 23.3346 22.1666V12.7749" stroke="#1A1A1A" stroke-width="1.75" stroke-linecap="round" stroke-linejoin="round"/>
</svg>