<svg width="20" height="22" viewBox="0 0 20 22" fill="none" xmlns="http://www.w3.org/2000/svg">
<path id="local_mall" d="M2.55272 21.5C2.03064 21.5 1.58594 21.3164 1.21864 20.9493C0.851524 20.582 0.667969 20.1373 0.667969 19.6152V7.05142C0.667969 6.52933 0.851524 6.08464 1.21864 5.71733C1.58594 5.35022 2.03064 5.16667 2.55272 5.16667H5.33464C5.33464 3.86681 5.7875 2.76411 6.69322 1.85858C7.59875 0.952862 8.70144 0.5 10.0013 0.5C11.3012 0.5 12.4039 0.952862 13.3094 1.85858C14.2151 2.76411 14.668 3.86681 14.668 5.16667H17.4499C17.972 5.16667 18.4167 5.35022 18.784 5.71733C19.1511 6.08464 19.3346 6.52933 19.3346 7.05142V19.6152C19.3346 20.1373 19.1511 20.582 18.784 20.9493C18.4167 21.3164 17.972 21.5 17.4499 21.5H2.55272ZM2.55272 20.3333H17.4499C17.6296 20.3333 17.7941 20.2586 17.9437 20.109C18.0932 19.9595 18.168 19.7949 18.168 19.6152V7.05142C18.168 6.87175 18.0932 6.70715 17.9437 6.55763C17.7941 6.4081 17.6296 6.33333 17.4499 6.33333H2.55272C2.37305 6.33333 2.20846 6.4081 2.05893 6.55763C1.9094 6.70715 1.83464 6.87175 1.83464 7.05142V19.6152C1.83464 19.7949 1.9094 19.9595 2.05893 20.109C2.20846 20.2586 2.37305 20.3333 2.55272 20.3333ZM10.0013 12.1667C11.3012 12.1667 12.4039 11.7138 13.3094 10.8081C14.2151 9.90256 14.668 8.79986 14.668 7.5H13.5013C13.5013 8.47222 13.161 9.29861 12.4805 9.97917C11.7999 10.6597 10.9735 11 10.0013 11C9.02908 11 8.20269 10.6597 7.52214 9.97917C6.84158 9.29861 6.5013 8.47222 6.5013 7.5H5.33464C5.33464 8.79986 5.7875 9.90256 6.69322 10.8081C7.59875 11.7138 8.70144 12.1667 10.0013 12.1667ZM6.5013 5.16667H13.5013C13.5013 4.19444 13.161 3.36806 12.4805 2.6875C11.7999 2.00694 10.9735 1.66667 10.0013 1.66667C9.02908 1.66667 8.20269 2.00694 7.52214 2.6875C6.84158 3.36806 6.5013 4.19444 6.5013 5.16667Z" fill="#666666"/>
</svg>