<svg width="28" height="28" viewBox="0 0 28 28" fill="none" xmlns="http://www.w3.org/2000/svg">
<path d="M23.3336 9.33398H4.66691C4.02258 9.33398 3.50024 9.85632 3.50024 10.5007V12.834C3.50024 13.4783 4.02258 14.0007 4.66691 14.0007H23.3336C23.9779 14.0007 24.5002 13.4783 24.5002 12.834V10.5007C24.5002 9.85632 23.9779 9.33398 23.3336 9.33398Z" stroke="#666666" stroke-width="1.5" stroke-linecap="round" stroke-linejoin="round"/>
<path d="M14.0002 9.33398V24.5007" stroke="#666666" stroke-width="1.5" stroke-linecap="round" stroke-linejoin="round"/>
<path d="M22.168 14V22.1667C22.168 22.7855 21.9222 23.379 21.4846 23.8166C21.047 24.2542 20.4536 24.5 19.8347 24.5H8.16805C7.54921 24.5 6.95572 24.2542 6.51813 23.8166C6.08055 23.379 5.83472 22.7855 5.83472 22.1667V14" stroke="#666666" stroke-width="1.5" stroke-linecap="round" stroke-linejoin="round"/>
<path d="M8.75138 9.33384C7.97784 9.33384 7.23597 9.02655 6.68899 8.47957C6.14201 7.93259 5.83472 7.19073 5.83472 6.41718C5.83472 5.64363 6.14201 4.90176 6.68899 4.35478C7.23597 3.8078 7.97784 3.50051 8.75138 3.50051C9.87685 3.4809 10.9797 4.02698 11.9162 5.06753C12.8527 6.10808 13.5794 7.59481 14.0014 9.33384C14.4234 7.59481 15.15 6.10808 16.0865 5.06753C17.023 4.02698 18.1259 3.4809 19.2514 3.50051C20.0249 3.50051 20.7668 3.8078 21.3138 4.35478C21.8608 4.90176 22.168 5.64363 22.168 6.41718C22.168 7.19073 21.8608 7.93259 21.3138 8.47957C20.7668 9.02655 20.0249 9.33384 19.2514 9.33384" stroke="#666666" stroke-width="1.5" stroke-linecap="round" stroke-linejoin="round"/>
</svg>
