<svg width="28" height="28" viewBox="0 0 28 28" fill="none" xmlns="http://www.w3.org/2000/svg">
<path d="M14.0002 8.16699V24.5003" stroke="#666666" stroke-width="1.5" stroke-linecap="round" stroke-linejoin="round"/>
<path d="M18.6658 14H20.9991" stroke="#666666" stroke-width="1.5" stroke-linecap="round" stroke-linejoin="round"/>
<path d="M18.6658 9.33301H20.9991" stroke="#666666" stroke-width="1.5" stroke-linecap="round" stroke-linejoin="round"/>
<path d="M3.50138 21C3.19196 21 2.89522 20.8771 2.67643 20.6583C2.45763 20.4395 2.33472 20.1428 2.33472 19.8333V4.66667C2.33472 4.35725 2.45763 4.0605 2.67643 3.84171C2.89522 3.62292 3.19196 3.5 3.50138 3.5H9.33472C10.5724 3.5 11.7594 3.99167 12.6345 4.86683C13.5097 5.742 14.0014 6.92899 14.0014 8.16667C14.0014 6.92899 14.493 5.742 15.3682 4.86683C16.2434 3.99167 17.4304 3.5 18.668 3.5H24.5014C24.8108 3.5 25.1075 3.62292 25.3263 3.84171C25.5451 4.0605 25.668 4.35725 25.668 4.66667V19.8333C25.668 20.1428 25.5451 20.4395 25.3263 20.6583C25.1075 20.8771 24.8108 21 24.5014 21H17.5014C16.5731 21 15.6829 21.3687 15.0265 22.0251C14.3701 22.6815 14.0014 23.5717 14.0014 24.5C14.0014 23.5717 13.6326 22.6815 12.9763 22.0251C12.3199 21.3687 11.4296 21 10.5014 21H3.50138Z" stroke="#666666" stroke-width="1.5" stroke-linecap="round" stroke-linejoin="round"/>
<path d="M7.00024 14H9.33358" stroke="#666666" stroke-width="1.5" stroke-linecap="round" stroke-linejoin="round"/>
<path d="M7.00024 9.33301H9.33358" stroke="#666666" stroke-width="1.5" stroke-linecap="round" stroke-linejoin="round"/>
</svg>