<svg width="60" height="60" viewBox="0 0 60 60" fill="none" xmlns="http://www.w3.org/2000/svg">
<mask id="mask0_4504_6737" style="mask-type:alpha" maskUnits="userSpaceOnUse" x="0" y="0" width="60" height="60">
<rect width="60" height="60" fill="#D9D9D9"/>
</mask>
<g mask="url(#mask0_4504_6737)">
<path d="M22.0287 54.6632L17.5675 47.1444L9.09623 45.2882L9.92311 36.5675L4.18311 30L9.92311 23.4325L9.09623 14.7119L17.5675 12.8557L22.0287 5.33691L30 8.72129L37.9712 5.33691L42.4325 12.8557L50.9037 14.7119L50.0769 23.4325L55.8169 30L50.0769 36.5675L50.9037 45.2882L42.4325 47.1444L37.9712 54.6632L30 51.2788L22.0287 54.6632ZM23.625 49.875L30 47.1732L36.4519 49.875L40 43.875L46.875 42.2982L46.25 35.25L50.875 30L46.25 24.6732L46.875 17.625L40 16.125L36.375 10.125L30 12.8269L23.5481 10.125L20 16.125L13.125 17.625L13.75 24.6732L9.12498 30L13.75 35.25L13.125 42.375L20 43.875L23.625 49.875ZM27.375 38.0094L40.6344 24.75L38 22.0388L27.375 32.6638L22 27.3657L19.3656 30L27.375 38.0094Z" fill="#008000"/>
</g>
</svg>
