<svg width="28" height="28" viewBox="0 0 28 28" fill="none" xmlns="http://www.w3.org/2000/svg">
<path d="M2.33472 10.4997C3.26297 10.4997 4.15321 10.8684 4.80959 11.5248C5.46597 12.1812 5.83472 13.0714 5.83472 13.9997C5.83472 14.9279 5.46597 15.8182 4.80959 16.4745C4.15321 17.1309 3.26297 17.4997 2.33472 17.4997V19.833C2.33472 20.4518 2.58055 21.0453 3.01813 21.4829C3.45572 21.9205 4.04921 22.1663 4.66805 22.1663H23.3347C23.9536 22.1663 24.547 21.9205 24.9846 21.4829C25.4222 21.0453 25.668 20.4518 25.668 19.833V17.4997C24.7398 17.4997 23.8496 17.1309 23.1932 16.4745C22.5368 15.8182 22.168 14.9279 22.168 13.9997C22.168 13.0714 22.5368 12.1812 23.1932 11.5248C23.8496 10.8684 24.7398 10.4997 25.668 10.4997V8.16634C25.668 7.5475 25.4222 6.95401 24.9846 6.51643C24.547 6.07884 23.9536 5.83301 23.3347 5.83301H4.66805C4.04921 5.83301 3.45572 6.07884 3.01813 6.51643C2.58055 6.95401 2.33472 7.5475 2.33472 8.16634V10.4997Z" stroke="#666666" stroke-width="1.5" stroke-linecap="round" stroke-linejoin="round"/>
<path d="M10.5002 10.5H10.5119" stroke="#666666" stroke-width="1.5" stroke-linecap="round" stroke-linejoin="round"/>
<path d="M17.5002 10.5L10.5002 17.5" stroke="#666666" stroke-width="1.5" stroke-linecap="round" stroke-linejoin="round"/>
<path d="M17.5002 17.5H17.5119" stroke="#666666" stroke-width="1.5" stroke-linecap="round" stroke-linejoin="round"/>
</svg>