<svg width="14" height="8" viewBox="0 0 14 8" fill="none" xmlns="http://www.w3.org/2000/svg">
<path d="M7.00058 2.39627L2.24875 7.1484C2.08717 7.30979 1.88407 7.39242 1.63946 7.39631C1.39504 7.40001 1.18825 7.31737 1.01908 7.1484C0.850111 6.97923 0.765625 6.77429 0.765625 6.53356C0.765625 6.29284 0.850111 6.0879 1.01908 5.91873L6.26238 0.67544C6.37165 0.566357 6.48686 0.489355 6.608 0.444439C6.72914 0.399522 6.86 0.377064 7.00058 0.377064C7.14117 0.377064 7.27203 0.399522 7.39317 0.444439C7.51431 0.489355 7.62952 0.566357 7.73879 0.67544L12.9821 5.91873C13.1435 6.08031 13.2261 6.28341 13.23 6.52802C13.2337 6.77244 13.1511 6.97923 12.9821 7.1484C12.8129 7.31737 12.608 7.40186 12.3673 7.40186C12.1265 7.40186 11.9216 7.31737 11.7524 7.1484L7.00058 2.39627Z" fill="#666666"/>
</svg>