<svg width="18" height="18" viewBox="0 0 14 16" fill="none" xmlns="http://www.w3.org/2000/svg">
<path d="M6.99996 14.2613C8.63024 12.8018 9.87781 11.402 10.7427 10.0617C11.6075 8.72143 12.04 7.54754 12.04 6.54004C12.04 5.02087 11.5573 3.77199 10.592 2.79337C9.62677 1.81476 8.4294 1.32546 6.99996 1.32546C5.57052 1.32546 4.37315 1.81476 3.40788 2.79337C2.4426 3.77199 1.95996 5.02087 1.95996 6.54004C1.95996 7.54754 2.39239 8.72143 3.25725 10.0617C4.12211 11.402 5.36968 12.8018 6.99996 14.2613ZM6.99996 15.4502C6.8376 15.4502 6.67524 15.4223 6.51288 15.3663C6.35038 15.3102 6.20343 15.2234 6.07204 15.1059C5.32427 14.4167 4.62447 13.707 3.97267 12.9767C3.321 12.2466 2.75454 11.5166 2.27329 10.7869C1.79191 10.0572 1.411 9.33393 1.13059 8.61712C0.850169 7.90018 0.709961 7.20782 0.709961 6.54004C0.709961 4.61699 1.33197 3.06011 2.576 1.86942C3.82017 0.678721 5.29482 0.083374 6.99996 0.083374C8.7051 0.083374 10.1798 0.678721 11.4239 1.86942C12.6679 3.06011 13.29 4.61699 13.29 6.54004C13.29 7.20782 13.1498 7.89879 12.8693 8.61296C12.5889 9.32726 12.2094 10.0506 11.7308 10.783C11.252 11.5153 10.6868 12.2452 10.0352 12.9727C9.3835 13.7004 8.68371 14.4087 7.93579 15.0977C7.80635 15.2153 7.6592 15.3034 7.49434 15.3621C7.32961 15.4209 7.16482 15.4502 6.99996 15.4502ZM7.00142 7.88775C7.416 7.88775 7.77045 7.74011 8.06475 7.44483C8.3592 7.14956 8.50642 6.79462 8.50642 6.38004C8.50642 5.96546 8.35878 5.61094 8.0635 5.3165C7.76822 5.02219 7.41322 4.87504 6.9985 4.87504C6.58392 4.87504 6.22947 5.02268 5.93517 5.31796C5.64072 5.61324 5.4935 5.96824 5.4935 6.38296C5.4935 6.79754 5.64114 7.15199 5.93642 7.44629C6.2317 7.7406 6.5867 7.88775 7.00142 7.88775Z" fill="#666666"/>
</svg>