<svg width="20" height="20" viewBox="0 0 20 20" fill="none" xmlns="http://www.w3.org/2000/svg">
<path d="M16.0475 5.27575C16.4441 4.87931 16.6669 4.34158 16.667 3.78086C16.667 3.22013 16.4443 2.68235 16.0479 2.28581C15.6515 1.88927 15.1137 1.66645 14.553 1.66638C13.9923 1.66631 13.4545 1.88899 13.058 2.28543L3.04823 12.2974C2.87409 12.471 2.74531 12.6848 2.67322 12.9199L1.68245 16.184C1.66307 16.2489 1.6616 16.3178 1.67821 16.3834C1.69482 16.449 1.72889 16.5089 1.7768 16.5568C1.82471 16.6046 1.88467 16.6386 1.95032 16.6551C2.01598 16.6716 2.08488 16.67 2.14971 16.6505L5.41453 15.6605C5.64942 15.589 5.86317 15.4611 6.03705 15.2877L16.0475 5.27575Z" stroke="#1A1A1A" stroke-width="1.5" stroke-linecap="round" stroke-linejoin="round"/>
<path d="M11.4167 3.91663L14.4168 6.91669" stroke="#1A1A1A" stroke-width="1.5" stroke-linecap="round" stroke-linejoin="round"/>
</svg>
