<svg width="20" height="20" viewBox="0 0 20 20" fill="none" xmlns="http://www.w3.org/2000/svg">
<path d="M16.0475 5.27587C16.4441 4.87943 16.6669 4.3417 16.667 3.78098C16.667 3.22025 16.4443 2.68247 16.0479 2.28593C15.6515 1.88939 15.1137 1.66657 14.553 1.6665C13.9923 1.66643 13.4545 1.88911 13.058 2.28555L3.04823 12.2975C2.87409 12.4712 2.74531 12.6849 2.67322 12.92L1.68245 16.1841C1.66307 16.249 1.6616 16.3179 1.67821 16.3835C1.69482 16.4491 1.72889 16.509 1.7768 16.5569C1.82471 16.6047 1.88467 16.6387 1.95032 16.6552C2.01598 16.6717 2.08488 16.6701 2.14971 16.6506L5.41453 15.6606C5.64942 15.5892 5.86317 15.4612 6.03705 15.2878L16.0475 5.27587Z" stroke="#1A1A1A" stroke-width="1.5" stroke-linecap="round" stroke-linejoin="round"/>
<path d="M11.4167 3.91675L14.4168 6.91682" stroke="#1A1A1A" stroke-width="1.5" stroke-linecap="round" stroke-linejoin="round"/>
</svg>
