<svg width="17" height="17" viewBox="0 0 17 17" fill="none" xmlns="http://www.w3.org/2000/svg">
<path d="M15.1308 4.35937C15.5273 3.96293 15.7501 3.4252 15.7502 2.86447C15.7503 2.30375 15.5276 1.76597 15.1312 1.36942C14.7347 0.972884 14.197 0.75007 13.6363 0.75C13.0755 0.74993 12.5378 0.972609 12.1412 1.36905L2.13148 11.381C1.95734 11.5547 1.82856 11.7684 1.75647 12.0035L0.765701 15.2676C0.746317 15.3325 0.744853 15.4014 0.761464 15.467C0.778076 15.5326 0.812142 15.5925 0.860051 15.6404C0.907959 15.6882 0.967921 15.7222 1.03358 15.7387C1.09923 15.7552 1.16813 15.7536 1.23296 15.7341L4.49779 14.7441C4.73267 14.6727 4.94643 14.5447 5.1203 14.3713L15.1308 4.35937Z" stroke="#1A1A1A" stroke-width="1.5" stroke-linecap="round" stroke-linejoin="round"/>
<path d="M10.5 3.00024L13.5001 6.00031" stroke="#1A1A1A" stroke-width="1.5" stroke-linecap="round" stroke-linejoin="round"/>
</svg>