<svg width="20" height="20" viewBox="0 0 20 20" fill="none" xmlns="http://www.w3.org/2000/svg">
<path d="M12.5 17.5V13.3333C12.5 13.1123 12.4122 12.9004 12.2559 12.7441C12.0996 12.5878 11.8877 12.5 11.6667 12.5H8.33333C8.11232 12.5 7.90036 12.5878 7.74408 12.7441C7.5878 12.9004 7.5 13.1123 7.5 13.3333V17.5" stroke="#8D7BEF" stroke-width="1.5" stroke-linecap="round" stroke-linejoin="round"/>
<path d="M14.8115 8.5915C14.6378 8.4252 14.4066 8.33237 14.1661 8.33237C13.9256 8.33237 13.6944 8.4252 13.5207 8.5915C13.1332 8.9611 12.6183 9.1673 12.0828 9.1673C11.5473 9.1673 11.0324 8.9611 10.6449 8.5915C10.4712 8.42545 10.2402 8.33277 9.99988 8.33277C9.75959 8.33277 9.52856 8.42545 9.35488 8.5915C8.96734 8.96135 8.45224 9.1677 7.91655 9.1677C7.38085 9.1677 6.86575 8.96135 6.47821 8.5915C6.30449 8.4252 6.07329 8.33237 5.8328 8.33237C5.59231 8.33237 5.3611 8.4252 5.18738 8.5915C4.81308 8.94868 4.31927 9.15381 3.80207 9.16696C3.28486 9.18011 2.78127 9.00035 2.3893 8.66265C1.99733 8.32496 1.74504 7.8535 1.68153 7.34004C1.61802 6.82658 1.74784 6.30786 2.04571 5.88484L4.45321 2.39817C4.60597 2.17276 4.81162 1.98822 5.05219 1.86067C5.29276 1.73312 5.56092 1.66645 5.83321 1.6665H14.1665C14.438 1.6664 14.7055 1.73262 14.9455 1.85941C15.1856 1.9862 15.3911 2.16972 15.544 2.394L17.9565 5.88734C18.2545 6.31069 18.3841 6.82981 18.3202 7.34354C18.2563 7.85726 18.0034 8.32879 17.6109 8.66625C17.2183 9.0037 16.7141 9.1829 16.1966 9.16893C15.6791 9.15496 15.1854 8.94882 14.8115 8.59067" stroke="#8D7BEF" stroke-width="1.5" stroke-linecap="round" stroke-linejoin="round"/>
<path d="M3.33325 9.125V15.8333C3.33325 16.2754 3.50885 16.6993 3.82141 17.0118C4.13397 17.3244 4.55789 17.5 4.99992 17.5H14.9999C15.4419 17.5 15.8659 17.3244 16.1784 17.0118C16.491 16.6993 16.6666 16.2754 16.6666 15.8333V9.125" stroke="#8D7BEF" stroke-width="1.5" stroke-linecap="round" stroke-linejoin="round"/>
</svg>