<svg width="20" height="20" viewBox="0 0 20 20" fill="none" xmlns="http://www.w3.org/2000/svg">
<path d="M11.6645 3.33301C11.9652 3.333 12.2602 3.41433 12.5184 3.56837C12.7766 3.72241 12.9883 3.94343 13.1312 4.20801L13.5362 4.95801C13.679 5.22258 13.8907 5.4436 14.1489 5.59764C14.4071 5.75168 14.7022 5.83301 15.0028 5.83301H16.667C17.109 5.83301 17.5329 6.0086 17.8455 6.32116C18.1581 6.63372 18.3337 7.05765 18.3337 7.49967V14.9997C18.3337 15.4417 18.1581 15.8656 17.8455 16.1782C17.5329 16.4907 17.109 16.6663 16.667 16.6663H3.33366C2.89163 16.6663 2.46771 16.4907 2.15515 16.1782C1.84259 15.8656 1.66699 15.4417 1.66699 14.9997V7.49967C1.66699 7.05765 1.84259 6.63372 2.15515 6.32116C2.46771 6.0086 2.89163 5.83301 3.33366 5.83301H4.99783C5.29818 5.83302 5.59295 5.75188 5.85098 5.59815C6.109 5.44442 6.32069 5.22382 6.46366 4.95967L6.87116 4.20634C7.01412 3.9422 7.22581 3.7216 7.48384 3.56787C7.74187 3.41414 8.03664 3.33299 8.33699 3.33301H11.6645Z" stroke="#5BC0BE" stroke-width="1.5" stroke-linecap="round" stroke-linejoin="round"/>
<path d="M10 13.333C11.3807 13.333 12.5 12.2137 12.5 10.833C12.5 9.4523 11.3807 8.33301 10 8.33301C8.61929 8.33301 7.5 9.4523 7.5 10.833C7.5 12.2137 8.61929 13.333 10 13.333Z" stroke="#5BC0BE" stroke-width="1.5" stroke-linecap="round" stroke-linejoin="round"/>
</svg>
